0
SECTION
2
HEADER
9
$INSUNITS
70
4
9
$ACADVER
1
AC1014
9
$HANDSEED
5
FFFF
0
ENDSEC
0
SECTION
2
TABLES
0
TABLE
2
VPORT
5
8
100
AcDbSymbolTable
0
ENDTAB
0
TABLE
2
LTYPE
5
5
100
AcDbSymbolTable
0
LTYPE
5
14
100
AcDbSymbolTableRecord
100
AcDbLinetypeTableRecord
2
BYBLOCK
70
0
0
LTYPE
5
15
100
AcDbSymbolTableRecord
100
AcDbLinetypeTableRecord
2
BYLAYER
70
0
0
ENDTAB
0
TABLE
2
LAYER
5
2
100
AcDbSymbolTable
70
2
0
LAYER
5
50
100
AcDbSymbolTableRecord
100
AcDbLayerTableRecord
2
0
70
0
6
CONTINUOUS
0
ENDTAB
0
TABLE
2
STYLE
5
3
100
AcDbSymbolTable
70
1
0
STYLE
5
11
100
AcDbSymbolTableRecord
100
AcDbTextStyleTableRecord
2
STANDARD
70
0
0
ENDTAB
0
TABLE
2
VIEW
5
6
100
AcDbSymbolTable
70
0
0
ENDTAB
0
TABLE
2
UCS
5
7
100
AcDbSymbolTable
70
0
0
ENDTAB
0
TABLE
2
APPID
5
9
100
AcDbSymbolTable
70
2
0
APPID
5
12
100
AcDbSymbolTableRecord
100
AcDbRegAppTableRecord
2
ACAD
70
0
0
ENDTAB
0
TABLE
2
DIMSTYLE
5
A
100
AcDbSymbolTable
70
1
0
ENDTAB
0
TABLE
2
BLOCK_RECORD
5
1
100
AcDbSymbolTable
70
1
0
BLOCK_RECORD
5
1F
100
AcDbSymbolTableRecord
100
AcDbBlockTableRecord
2
*MODEL_SPACE
0
BLOCK_RECORD
5
1B
100
AcDbSymbolTableRecord
100
AcDbBlockTableRecord
2
*PAPER_SPACE
0
ENDTAB
0
ENDSEC
0
SECTION
2
BLOCKS
0
BLOCK
5
20
100
AcDbEntity
100
AcDbBlockBegin
2
*MODEL_SPACE
0
ENDBLK
5
21
100
AcDbEntity
100
AcDbBlockEnd
0
BLOCK
5
1C
100
AcDbEntity
100
AcDbBlockBegin
2
*PAPER_SPACE
0
ENDBLK
5
1D
100
AcDbEntity
100
AcDbBlockEnd
0
ENDSEC
0
SECTION
2
ENTITIES
0
LWPOLYLINE
5
100
100
AcDbEntity
8
0
100
AcDbPolyline
90
24
70
1
43
0.0
10
-66.685467063912199
20
9.6492686506580743
42
-0.41421356237309503
10
-64.685467063912199
20
11.649268650658072
10
-40.110467063912182
20
11.649268650658083
10
-40.110467063912182
20
12.649268650658092
42
-0.99999999999999989
10
-36.110467063912196
20
12.649268650658092
10
-36.110467063912196
20
11.649268650658087
10
36.089532936087792
20
11.649268650658122
10
36.089532936087764
20
12.64926865065811
42
-0.99999999999999989
10
40.089532936087799
20
12.64926865065811
10
40.089532936087799
20
11.649268650658122
10
64.664532936087809
20
11.649268650658133
42
-0.41421356237309492
10
66.664532936087809
20
9.6492686506581329
10
66.664532936087795
20
-9.3507313493418653
42
-0.4142135623730937
10
64.664532936087809
20
-11.350731349341853
10
40.089532936087821
20
-11.350731349341871
10
40.089532936087807
20
-12.350731349341885
42
-0.99999999999999989
10
36.089532936087835
20
-12.350731349341903
10
36.089532936087828
20
-11.350731349341881
10
-36.110467063912161
20
-11.350731349341906
10
-36.110467063912239
20
-12.350731349341931
42
-0.99999999999999989
10
-40.110467063912139
20
-12.350731349341931
10
-40.110467063912139
20
-11.350731349341906
10
-64.685467063912199
20
-11.350731349341883
42
-0.41421356237309392
10
-66.685467063912171
20
-9.3507313493419257
0
LWPOLYLINE
5
101
100
AcDbEntity
8
0
100
AcDbPolyline
90
8
70
1
43
0.0
10
-31.6104670639122
20
7.1492686506580831
42
-0.4142135623730937
10
-31.110467063912207
20
6.6492686506580823
10
-31.110467063912193
20
-6.3507313493419302
42
-0.41421356237309243
10
-31.610467063912203
20
-6.8507313493419355
10
-44.610467063912168
20
-6.8507313493419497
42
-0.41421356237310347
10
-45.110467063912189
20
-6.3507313493419373
10
-45.110467063912182
20
6.6492686506580769
42
-0.41421356237309825
10
-44.610467063912182
20
7.1492686506580849
0
LWPOLYLINE
5
102
100
AcDbEntity
8
0
100
AcDbPolyline
90
8
70
1
43
0.0
10
-12.560467063912197
20
7.1492686506580752
42
-0.4142135623730957
10
-12.06046706391221
20
6.6492686506580867
10
-12.060467063912208
20
-6.3507313493419169
42
-0.41421356237309631
10
-12.560467063912199
20
-6.8507313493419053
10
-25.56046706391216
20
-6.8507313493419204
42
-0.41421356237309698
10
-26.060467063912164
20
-6.350731349341924
10
-26.060467063912178
20
6.6492686506580769
42
-0.4142135623730937
10
-25.560467063912164
20
7.1492686506580849
0
LWPOLYLINE
5
103
100
AcDbEntity
8
0
100
AcDbPolyline
90
8
70
1
43
0.0
10
6.4895329360878122
20
7.1492686506580938
42
-0.41421356237309764
10
6.9895329360878105
20
6.6492686506580956
10
6.9895329360878105
20
-6.3507313493419124
42
-0.41421356237309698
10
6.4895329360878122
20
-6.8507313493419097
10
-6.510467063912186
20
-6.8507313493419115
42
-0.41421356237309959
10
-7.0104670639121931
20
-6.3507313493419151
10
-7.0104670639122011
20
6.6492686506580903
42
-0.41421356237310802
10
-6.5104670639121771
20
7.1492686506580982
0
LWPOLYLINE
5
104
100
AcDbEntity
8
0
100
AcDbPolyline
90
8
70
1
43
0.0
10
25.539532936087831
20
7.1492686506580974
42
-0.41421356237309698
10
26.039532936087827
20
6.6492686506581045
10
26.039532936087824
20
-6.3507313493419035
42
-0.4142135623730957
10
25.539532936087831
20
-6.8507313493419009
10
12.539532936087818
20
-6.8507313493418991
42
-0.4142135623730957
10
12.039532936087818
20
-6.3507313493419018
10
12.039532936087818
20
6.6492686506580947
42
-0.41421356237309825
10
12.539532936087816
20
7.1492686506580938
0
LWPOLYLINE
5
105
100
AcDbEntity
8
0
100
AcDbPolyline
90
8
70
1
43
0.0
10
44.589532936087799
20
7.1492686506581071
42
-0.41421356237309503
10
45.089532936087799
20
6.6492686506581089
10
45.089532936087799
20
-6.3507313493418973
42
-0.41421356237309309
10
44.589532936087799
20
-6.8507313493418955
10
31.589532936087803
20
-6.8507313493418991
42
-0.41421356237309698
10
31.089532936087799
20
-6.3507313493419018
10
31.089532936087807
20
6.649268650658108
42
-0.41421356237309115
10
31.589532936087789
20
7.1492686506581045
0
LWPOLYLINE
5
106
100
AcDbEntity
8
0
100
AcDbPolyline
90
14
70
1
43
0.0
10
59.639532936087789
20
9.1492686506581169
42
-0.41421356237309537
10
60.639532936087789
20
8.1492686506581187
10
60.639532936087775
20
7.1492686506581107
10
63.639532936087818
20
7.1492686506581116
42
-0.41421356237308982
10
64.139532936087818
20
6.6492686506581133
10
64.139532936087818
20
-6.3507313493418884
42
-0.4142135623730937
10
63.639532936087811
20
-6.8507313493418884
10
50.639532936087818
20
-6.8507313493418964
42
-0.41421356237310025
10
50.139532936087804
20
-6.3507313493418982
10
50.139532936087804
20
6.6492686506581169
42
-0.41421356237309437
10
50.639532936087804
20
7.1492686506581133
10
52.520532936087804
20
7.1492686506581107
10
52.520532936087776
20
8.1492686506581116
42
-0.41421356237309503
10
53.520532936087768
20
9.1492686506581116
0
LWPOLYLINE
5
107
100
AcDbEntity
8
0
100
AcDbPolyline
90
14
70
1
43
0.0
10
-61.779467063912179
20
7.1492686506580663
10
-63.660467063912165
20
7.1492686506580752
42
0.41421356237310347
10
-64.160467063912165
20
6.649268650658068
10
-64.160467063912165
20
-6.3507313493419284
42
0.41421356237309892
10
-63.660467063912165
20
-6.8507313493419266
10
-50.660467063912186
20
-6.8507313493419355
42
0.41421356237309825
10
-50.160467063912165
20
-6.3507313493419293
10
-50.160467063912186
20
6.6492686506580689
42
0.41421356237308982
10
-50.660467063912179
20
7.1492686506580752
10
-53.660467063912179
20
7.1492686506580752
10
-53.660467063912193
20
8.1492686506580796
42
0.41421356237309209
10
-54.660467063912179
20
9.149268650658076
10
-60.779467063912193
20
9.1492686506580743
42
0.41421356237309503
10
-61.779467063912179
20
8.149268650658076
0
LINE
5
108
100
AcDbEntity
8
0
100
AcDbLine
10
74.150000000000389
20
-12.154425840159416
30
0
11
74.150000000000375
21
11.845574159840584
31
4.9303806576313238e-31
0
ARC
5
109
100
AcDbEntity
8
0
100
AcDbCircle
10
68.150000000000375
20
11.845574159840574
30
0
40
6.0000000000000053
210
-2.4651903288156668e-32
220
2.4651903288156572e-32
230
1
100
AcDbArc
50
0
51
90
0
LINE
5
110
100
AcDbEntity
8
0
100
AcDbLine
10
68.150000000000375
20
17.845574159840577
30
0
11
65.150000000000404
21
17.845574159840584
31
0
0
ARC
5
111
100
AcDbEntity
8
0
100
AcDbCircle
10
68.150000000000389
20
-12.15442584015943
30
0
40
5.9999999999999876
210
-2.4651903288156545e-32
220
2.4651903288156685e-32
230
1
100
AcDbArc
50
-90.000000000000142
51
0
0
ARC
5
112
100
AcDbEntity
8
0
100
AcDbCircle
10
63.150000000000375
20
-15.154425840159414
30
0
40
1.9999999999999929
210
0
220
-0
230
1
100
AcDbArc
50
0
51
180
0
LINE
5
113
100
AcDbEntity
8
0
100
AcDbLine
10
65.150000000000375
20
-15.154425840159414
30
0
11
65.150000000000404
21
-18.154425840159419
31
0
0
LINE
5
114
100
AcDbEntity
8
0
100
AcDbLine
10
65.150000000000404
20
-18.154425840159419
30
0
11
68.150000000000375
21
-18.154425840159419
31
0
0
LINE
5
115
100
AcDbEntity
8
0
100
AcDbLine
10
61.150000000000382
20
-18.154425840159419
30
0
11
61.150000000000382
21
-15.154425840159414
31
0
0
LINE
5
116
100
AcDbEntity
8
0
100
AcDbLine
10
-61.149999999999586
20
-18.154425840159455
30
0
11
61.150000000000382
21
-18.154425840159419
31
0
0
LINE
5
117
100
AcDbEntity
8
0
100
AcDbLine
10
65.150000000000404
20
17.845574159840584
30
0
11
65.150000000000375
21
14.845574159840583
31
0
0
ARC
5
118
100
AcDbEntity
8
0
100
AcDbCircle
10
63.150000000000375
20
14.845574159840586
30
0
40
2.0000000000000018
210
0
220
0
230
1
100
AcDbArc
50
-180
51
0
0
LINE
5
119
100
AcDbEntity
8
0
100
AcDbLine
10
61.150000000000375
20
14.845574159840583
30
0
11
61.150000000000347
21
17.845574159840584
31
0
0
ARC
5
120
100
AcDbEntity
8
0
100
AcDbCircle
10
64.664532936087795
20
9.6492686506581222
30
0
40
2.0000000000000107
210
2.4651903288156619e-32
220
1.2316099784104771e-46
230
1
100
AcDbArc
50
0
51
89.999999999999588
0
LINE
5
121
100
AcDbEntity
8
0
100
AcDbLine
10
40.089532936087799
20
11.649268650658122
30
0
11
64.664532936087809
21
11.649268650658136
31
0
0
ARC
5
122
100
AcDbEntity
8
0
100
AcDbCircle
10
38.089532936087778
20
12.64926865065811
30
0
40
2.0000000000000018
210
2.4651903288156619e-32
220
-1.0988141707217246e-63
230
1
100
AcDbArc
50
0
51
180
0
LINE
5
123
100
AcDbEntity
8
0
100
AcDbLine
10
40.089532936087778
20
12.64926865065811
30
0
11
40.089532936087799
21
11.649268650658122
31
1.5407439555097887e-32
0
LINE
5
124
100
AcDbEntity
8
0
100
AcDbLine
10
61.150000000000347
20
17.845574159840584
30
0
11
-61.149999999999586
21
17.845574159840524
31
0
0
LINE
5
125
100
AcDbEntity
8
0
100
AcDbLine
10
66.664532936087809
20
9.6492686506581311
30
0
11
66.664532936087838
21
-9.3507313493418636
31
0
0
ARC
5
126
100
AcDbEntity
8
0
100
AcDbCircle
10
64.664532936087795
20
-9.3507313493418547
30
0
40
2.0000000000000115
210
-0
220
0
230
1
100
AcDbArc
50
270.0000000000004
51
360
0
LINE
5
127
100
AcDbEntity
8
0
100
AcDbLine
10
64.664532936087809
20
-11.350731349341865
30
0
11
40.089532936087807
21
-11.350731349341871
31
9.8607613152626476e-31
0
ARC
5
128
100
AcDbEntity
8
0
100
AcDbCircle
10
38.089532936087814
20
-12.350731349341896
30
0
40
1.9999999999999973
210
1.1400492369358615e-46
220
-2.4651903288156619e-32
230
1
100
AcDbArc
50
-180
51
0
0
LINE
5
129
100
AcDbEntity
8
0
100
AcDbLine
10
40.089532936087807
20
-11.350731349341871
30
0
11
40.089532936087807
21
-12.350731349341896
31
3.0814879110195774e-32
0
LINE
5
130
100
AcDbEntity
8
0
100
AcDbLine
10
36.089532936087821
20
-12.350731349341903
30
0
11
36.089532936087828
21
-11.350731349341881
31
3.0814879110195774e-32
0
LINE
5
131
100
AcDbEntity
8
0
100
AcDbLine
10
36.089532936087828
20
-11.350731349341881
30
0
11
-36.110467063912161
21
-11.350731349341906
31
0
0
LINE
5
132
100
AcDbEntity
8
0
100
AcDbLine
10
-36.110467063912196
20
11.649268650658087
30
0
11
36.089532936087792
21
11.649268650658122
31
0
0
LINE
5
133
100
AcDbEntity
8
0
100
AcDbLine
10
36.089532936087792
20
11.649268650658122
30
0
11
36.089532936087792
21
12.64926865065811
31
-3.0814879110195774e-32
0
LINE
5
134
100
AcDbEntity
8
0
100
AcDbLine
10
-36.110467063912161
20
-11.350731349341906
30
0
11
-36.110467063912161
21
-12.350731349341931
31
0
0
ARC
5
135
100
AcDbEntity
8
0
100
AcDbCircle
10
-38.110467063912189
20
-12.350731349341931
30
0
40
1.9999999999999973
210
2.4651903288156619e-32
220
2.4651903288156619e-32
230
1
100
AcDbArc
50
-180
51
0
0
LINE
5
136
100
AcDbEntity
8
0
100
AcDbLine
10
-40.110467063912189
20
-12.350731349341931
30
0
11
-40.110467063912154
21
-11.350731349341906
31
1.5407439555097887e-32
0
LINE
5
137
100
AcDbEntity
8
0
100
AcDbLine
10
-40.110467063912154
20
-11.350731349341906
30
0
11
-64.685467063912199
21
-11.350731349341917
31
0
0
LINE
5
138
100
AcDbEntity
8
0
100
AcDbLine
10
-36.110467063912189
20
12.649268650658092
30
0
11
-36.110467063912196
21
11.649268650658087
31
1.5407439555097887e-32
0
ARC
5
139
100
AcDbEntity
8
0
100
AcDbCircle
10
-38.110467063912189
20
12.649268650658092
30
0
40
2.0000000000000018
210
2.4651903288156619e-32
220
-1.0988141707217246e-63
230
1
100
AcDbArc
50
0
51
180
0
LINE
5
140
100
AcDbEntity
8
0
100
AcDbLine
10
-40.110467063912189
20
11.649268650658083
30
0
11
-40.110467063912189
21
12.649268650658092
31
0
0
LINE
5
141
100
AcDbEntity
8
0
100
AcDbLine
10
-64.685467063912199
20
11.649268650658076
30
0
11
-40.110467063912189
21
11.649268650658083
31
0
0
LINE
5
142
100
AcDbEntity
8
0
100
AcDbLine
10
-61.149999999999586
20
17.845574159840524
30
0
11
-61.149999999999579
21
14.845574159840515
31
6.1629758220391547e-32
0
LINE
5
143
100
AcDbEntity
8
0
100
AcDbLine
10
-65.149999999999579
20
14.845574159840515
30
0
11
-65.149999999999608
21
17.845574159840524
31
6.1629758220391547e-32
0
ARC
5
144
100
AcDbEntity
8
0
100
AcDbCircle
10
-63.149999999999579
20
14.84557415984052
30
0
40
2.0000000000000018
210
0
220
0
230
1
100
AcDbArc
50
-180
51
0
0
LINE
5
145
100
AcDbEntity
8
0
100
AcDbLine
10
-61.149999999999608
20
-15.154425840159503
30
0
11
-61.149999999999586
21
-18.154425840159455
31
6.1629758220391547e-32
0
LINE
5
146
100
AcDbEntity
8
0
100
AcDbLine
10
-65.149999999999608
20
-18.154425840159455
30
0
11
-65.149999999999608
21
-15.154425840159503
31
6.1629758220391547e-32
0
ARC
5
147
100
AcDbEntity
8
0
100
AcDbCircle
10
-63.149999999999615
20
-15.154425840159506
30
0
40
2.0000000000000018
210
0
220
-0
230
1
100
AcDbArc
50
0
51
180
0
ARC
5
148
100
AcDbEntity
8
0
100
AcDbCircle
10
-64.685467063912199
20
-9.3507313493419115
30
0
40
1.9999999999999751
210
0
220
0
230
1
100
AcDbArc
50
180
51
270
0
LINE
5
149
100
AcDbEntity
8
0
100
AcDbLine
10
-66.685467063912171
20
-9.3507313493419257
30
0
11
-66.685467063912171
21
9.6492686506580743
31
0
0
ARC
5
150
100
AcDbEntity
8
0
100
AcDbCircle
10
-64.685467063912199
20
9.6492686506580636
30
0
40
2.0000000000000098
210
0
220
0
230
1
100
AcDbArc
50
90
51
180
0
ARC
5
151
100
AcDbEntity
8
0
100
AcDbCircle
10
-68.149999999999608
20
11.845574159840531
30
0
40
5.9999999999999858
210
3.6492147508458867e-47
220
2.4651903288156619e-32
230
1
100
AcDbArc
50
89.999999999999872
51
180
0
LINE
5
152
100
AcDbEntity
8
0
100
AcDbLine
10
-65.149999999999608
20
17.845574159840524
30
0
11
-68.149999999999594
21
17.845574159840517
31
0
0
LINE
5
153
100
AcDbEntity
8
0
100
AcDbLine
10
-74.149999999999594
20
11.845574159840517
30
0
11
-74.149999999999608
21
-12.154425840159478
31
4.9303806576313238e-31
0
ARC
5
154
100
AcDbEntity
8
0
100
AcDbCircle
10
-68.149999999999608
20
-12.154425840159478
30
0
40
6.0000000000000053
210
4.5284811682096669e-48
220
-2.4651903288156619e-32
230
1
100
AcDbArc
50
180
51
270.00000000000011
0
LINE
5
155
100
AcDbEntity
8
0
100
AcDbLine
10
-68.149999999999594
20
-18.154425840159483
30
0
11
-65.149999999999608
21
-18.154425840159455
31
0
0
ENDSEC
0
SECTION
2
OBJECTS
0
DICTIONARY
5
C
100
AcDbDictionary
3
ACAD_GROUP
350
D
3
ACAD_MLINESTYLE
350
17
0
DICTIONARY
5
D
100
AcDbDictionary
0
DICTIONARY
5
1A
330
C
100
AcDbDictionary
0
DICTIONARY
5
17
100
AcDbDictionary
0
ENDSEC
0
EOF
